<svg width="18" height="18" viewBox="0 0 18 18" fill="none" xmlns="http://www.w3.org/2000/svg">
<path fill-rule="evenodd" clip-rule="evenodd" d="M1.995 2H16.005C17.107 2 18 2.895 18 3.994V16.006C18 16.2679 17.9484 16.5273 17.8481 16.7693C17.7478 17.0113 17.6009 17.2312 17.4156 17.4163C17.2304 17.6015 17.0104 17.7484 16.7684 17.8485C16.5263 17.9487 16.2669 18.0001 16.005 18H1.995C1.46607 18 0.958782 17.7899 0.584675 17.416C0.210569 17.0421 0.00026513 16.5349 0 16.006V3.994C0 2.893 0.892 2 1.995 2ZM2 6V15C2 15.2652 2.10536 15.5196 2.29289 15.7071C2.48043 15.8946 2.73478 16 3 16H15C15.2652 16 15.5196 15.8946 15.7071 15.7071C15.8946 15.5196 16 15.2652 16 15V6H2ZM3 1C3 0.734784 3.10536 0.48043 3.29289 0.292893C3.48043 0.105357 3.73478 0 4 0C4.26522 0 4.51957 0.105357 4.70711 0.292893C4.89464 0.48043 5 0.734784 5 1V2H3V1ZM13 1C13 0.734784 13.1054 0.48043 13.2929 0.292893C13.4804 0.105357 13.7348 0 14 0C14.2652 0 14.5196 0.105357 14.7071 0.292893C14.8946 0.48043 15 0.734784 15 1V2H13V1ZM4 10V7.999H6V10H4ZM12 10V7.999H14V10H12ZM8 10V7.999H10.001V10H8ZM4 14V12H6V14H4ZM8 14V12H10.001V14H8ZM12 14V12H14V14H12Z" fill="#626F86"/>
</svg>
