<svg width="17" height="16" viewBox="0 0 17 16" fill="none" xmlns="http://www.w3.org/2000/svg">
<path fill-rule="evenodd" clip-rule="evenodd" d="M7.36264 6.46512C7.30049 6.40385 7.25115 6.33083 7.21747 6.25032C7.18379 6.1698 7.16644 6.0834 7.16644 5.99612C7.16644 5.90885 7.18379 5.82245 7.21747 5.74193C7.25115 5.66142 7.30049 5.5884 7.36264 5.52712C7.48865 5.40275 7.65858 5.33301 7.83564 5.33301C8.01269 5.33301 8.18262 5.40275 8.30864 5.52712L10.2853 7.48712C10.3534 7.55468 10.4075 7.63506 10.4444 7.72362C10.4813 7.81218 10.5003 7.90718 10.5003 8.00312C10.5003 8.09907 10.4813 8.19406 10.4444 8.28263C10.4075 8.37119 10.3534 8.45157 10.2853 8.51912L8.3153 10.4725C8.18926 10.597 8.01919 10.6669 7.84197 10.6669C7.66475 10.6669 7.49468 10.597 7.36864 10.4725C7.30649 10.4112 7.25715 10.3382 7.22347 10.2576C7.18979 10.1771 7.17244 10.0907 7.17244 10.0035C7.17244 9.91618 7.18979 9.82978 7.22347 9.74927C7.25715 9.66875 7.30649 9.59574 7.36864 9.53446L8.91397 8.00312L7.36264 6.46512Z" fill="#172B4D"/>
</svg>
