<svg width="23" height="26" viewBox="0 0 23 26" fill="none" xmlns="http://www.w3.org/2000/svg">
<path fill-rule="evenodd" clip-rule="evenodd" d="M11.4999 19.6668C15.1818 19.6668 18.1666 16.6821 18.1666 13.0002C18.1666 9.31826 15.1818 6.3335 11.4999 6.3335C7.81802 6.3335 4.83325 9.31826 4.83325 13.0002C4.83325 16.6821 7.81802 19.6668 11.4999 19.6668ZM10.5611 13.0104L9.57792 13.9995C9.51444 14.0612 9.46389 14.1349 9.4292 14.2163C9.39451 14.2977 9.37638 14.3853 9.37587 14.4738C9.37536 14.5623 9.39248 14.65 9.42624 14.7318C9.45999 14.8136 9.50969 14.8879 9.57246 14.9503C9.63522 15.0127 9.70978 15.062 9.79179 15.0953C9.8738 15.1286 9.96162 15.1452 10.0501 15.1442C10.1386 15.1432 10.226 15.1246 10.3073 15.0894C10.3885 15.0543 10.4619 15.0033 10.5233 14.9395L11.5017 13.9552L12.4613 14.9188C12.586 15.0442 12.7554 15.1149 12.9323 15.1153C13.1091 15.1157 13.2789 15.0459 13.4043 14.9212C13.5296 14.7964 13.6003 14.627 13.6007 14.4502C13.6012 14.2733 13.5313 14.1035 13.4066 13.9782L12.4417 13.0096L13.4299 12.0155C13.5511 11.8894 13.6178 11.7208 13.6158 11.546C13.6138 11.3712 13.5432 11.2041 13.4193 11.0809C13.2953 10.9576 13.1279 10.8879 12.953 10.8869C12.7782 10.8859 12.61 10.9536 12.4846 11.0755L11.5009 12.065L10.4999 11.0602C10.3744 10.9384 10.2062 10.8709 10.0314 10.872C9.85655 10.8731 9.68918 10.9429 9.5653 11.0663C9.44142 11.1896 9.37095 11.3567 9.36907 11.5315C9.36719 11.7063 9.43406 11.8749 9.55525 12.0008L10.5611 13.0104Z" fill="#091E42" fill-opacity="0.31"/>
</svg>
