<svg width="24" height="24" viewBox="0 0 24 24" fill="none" xmlns="http://www.w3.org/2000/svg">
<g clip-path="url(#clip0_1820_77)">
<path d="M15.9839 15.012L11.8816 15.303C11.7847 15.3096 11.6998 15.3673 11.6562 15.4546C11.6137 15.5418 11.6203 15.6442 11.6736 15.7249C11.7074 15.7761 12.4904 16.9393 13.8516 16.9393C13.8887 16.9393 13.9268 16.9393 13.9649 16.9371C15.6649 16.8575 16.2333 15.4426 16.2573 15.3826C16.291 15.2954 16.278 15.1973 16.2224 15.1221C16.1669 15.0468 16.0776 15.0054 15.9839 15.012Z" fill="#00464A"/>
<path d="M9.35208 10.1413C8.93172 10.162 8.6072 10.5196 8.62789 10.9404L8.71066 12.641C8.73135 13.065 9.09399 13.391 9.51652 13.3659C9.93361 13.3408 10.2527 12.9843 10.2331 12.5668L10.1503 10.8662C10.1296 10.4455 9.77244 10.1206 9.35208 10.1413Z" fill="#00464A"/>
<path d="M16.8465 10.5381L16.9401 12.1788C16.9641 12.5996 17.3245 12.9211 17.7449 12.8972C18.1653 12.8732 18.4865 12.5123 18.4626 12.0916L18.3689 10.4509C18.3449 10.0323 17.9877 9.71075 17.5685 9.73255C17.147 9.75435 16.8225 10.1152 16.8475 10.5381H16.8465Z" fill="#00464A"/>
<path d="M22.7446 9.85029C22.4408 9.55378 22.1489 9.3859 21.8919 9.23874C21.697 9.12754 21.5293 9.03052 21.3659 8.88554C21.1764 8.71548 20.9456 8.25654 20.8421 7.98401C20.841 7.98074 20.8388 7.97638 20.8377 7.97311C20.2638 6.30196 19.4656 4.77144 18.4931 3.50254C16.7496 1.22856 14.6347 0.0174419 12.3772 0C12.362 0 12.3456 0 12.3304 0C9.89755 0 7.57687 1.43568 5.79198 4.04651C5.17451 4.94913 4.60387 6.20821 4.18569 7.12718C4.08877 7.34193 4.00165 7.53161 3.92868 7.6875C3.82414 7.9077 3.71415 8.10174 3.59109 8.27943L2.86363 1.74201C3.2132 1.59266 3.44734 1.2798 3.42774 0.930959C3.4016 0.46439 2.93224 0.112282 2.37902 0.142805C1.82581 0.173328 1.39891 0.576671 1.42505 1.04324C1.44574 1.4008 1.72562 1.69077 2.10459 1.79324L2.38556 9.35865L2.34417 9.38372C2.00658 9.58866 1.65701 9.80015 1.4098 10.0389C1.07657 10.3605 0.831539 10.8445 0.701947 11.4375C0.392668 12.8579 0.583245 15.1275 1.74849 15.6922C2.62514 16.1174 3.30359 16.8652 3.70979 17.855C5.16253 21.6835 8.40125 23.9804 12.375 24C12.3925 24 12.4088 24 12.4262 24C15.152 24 17.5914 22.9012 19.2979 20.9019C20.5274 19.4618 21.3256 17.625 21.6469 15.5799C21.7253 15.2355 22.076 14.8735 22.4179 14.5236C22.8012 14.1301 23.1976 13.7235 23.3545 13.2078C23.532 12.6257 23.4318 10.5229 22.7446 9.85029ZM19.4427 7.9851C19.8446 9.05233 20.1419 10.1675 20.3205 11.2664C20.5306 12.5614 20.5568 13.8238 20.4098 15.0098C20.2802 15.5876 19.7869 17.1693 18.1664 18.0883C15.9535 19.3441 12.5907 19.7137 10.1709 18.9691C7.44837 18.1308 5.80178 15.556 5.76693 12.0839C5.731 8.51272 7.5148 7.67987 9.34542 7.13154C11.6694 6.43605 15.152 6.26163 17.2745 6.73583C18.3417 6.97456 18.9004 7.36156 19.1814 7.64499C19.3099 7.77471 19.3915 7.89244 19.4427 7.9851ZM18.3047 20.0516C16.8302 21.7794 14.7992 22.6908 12.4284 22.6908C12.4132 22.6908 12.3979 22.6908 12.3816 22.6908C8.96536 22.6733 6.17858 20.6871 4.92622 17.3775C4.92186 17.3677 4.91859 17.3568 4.91424 17.347C4.57447 16.5251 4.0855 15.8296 3.47239 15.2856C3.46803 15.2802 3.46368 15.2758 3.45932 15.2703C3.1446 14.9618 3.2437 14.5094 3.26439 14.3252C3.41903 12.9342 3.03025 11.8419 2.91917 11.6119C2.79176 11.3481 2.66434 11.4626 2.69266 11.6163C2.72424 11.7929 2.758 12.0458 2.77869 12.3063C2.86472 13.3779 2.66979 14.3318 2.42367 14.5018C2.39318 14.5225 2.36269 14.528 2.33002 14.5193C2.32566 14.5171 2.32131 14.5149 2.31695 14.5127C2.03381 14.3754 1.69839 12.9942 1.97718 11.7144C2.07955 11.2456 2.24725 11.044 2.31477 10.9786C2.45634 10.8412 2.74275 10.669 3.01827 10.5011L3.10104 10.4509C4.06045 9.86773 4.6409 9.22892 5.10699 8.24564C5.18322 8.08539 5.27252 7.88808 5.37271 7.66679C5.74733 6.84048 6.31471 5.5923 6.86683 4.78452C8.40125 2.54106 10.3386 1.30814 12.3271 1.30814C12.3391 1.30814 12.3511 1.30814 12.3631 1.30814C15.127 1.32885 17.4095 3.64099 18.8492 6.61047C18.4811 6.41206 18.0118 6.2311 17.4117 6.09702C15.1967 5.60211 11.5692 5.78089 9.15376 6.50472C7.03019 7.14026 5.07106 8.25654 5.10917 12.0905C5.14729 15.8623 6.96593 18.6682 9.97378 19.5948C10.8668 19.8695 11.8795 20.0025 12.9196 20.0025C14.882 20.0025 16.9434 19.5316 18.4833 18.6584C18.9853 18.3739 19.3926 18.036 19.7226 17.6828C19.3665 18.5625 18.8906 19.3616 18.3004 20.0527L18.3047 20.0516ZM22.1054 12.8252C22.0672 12.9506 21.9518 13.1043 21.807 13.2667C21.7961 12.5429 21.7318 11.8038 21.6109 11.057C21.5826 10.8837 21.5521 10.7115 21.5195 10.5403C21.6251 10.609 21.7264 10.6842 21.8266 10.7812C22.0084 11.0222 22.2251 12.3979 22.1064 12.8263L22.1054 12.8252Z" fill="#00464A"/>
</g>
<defs>
<clipPath id="clip0_1820_77">
<rect width="24" height="24" fill="white"/>
</clipPath>
</defs>
</svg>
