<svg width="24" height="24" viewBox="0 0 24 24" fill="none" xmlns="http://www.w3.org/2000/svg">
<g id="&#60;Icon&#62; before">
<path id="Vector" fill-rule="evenodd" clip-rule="evenodd" d="M9.276 4.38207L7.357 9.24707L2.494 11.1641C2.34877 11.2217 2.22419 11.3216 2.13641 11.4509C2.04864 11.5802 2.00171 11.7328 2.00171 11.8891C2.00171 12.0453 2.04864 12.198 2.13641 12.3272C2.22419 12.4565 2.34877 12.5564 2.494 12.6141L7.357 14.5321L9.276 19.3951C9.33364 19.5403 9.43356 19.6649 9.56283 19.7527C9.6921 19.8404 9.84475 19.8874 10.001 19.8874C10.1573 19.8874 10.3099 19.8404 10.4392 19.7527C10.5684 19.6649 10.6684 19.5403 10.726 19.3951H10.725L12.643 14.5321L17.507 12.6131C17.6518 12.5551 17.776 12.455 17.8634 12.3258C17.9509 12.1965 17.9976 12.0441 17.9976 11.8881C17.9976 11.732 17.9509 11.5796 17.8634 11.4504C17.776 11.3212 17.6518 11.2211 17.507 11.1631L12.643 9.24707L10.725 4.38207C10.6858 4.28271 10.6264 4.19252 10.5507 4.11715C10.475 4.04179 10.3845 3.98286 10.285 3.94407C10.1899 3.90646 10.0884 3.88795 9.98615 3.8896C9.88392 3.89126 9.78302 3.91305 9.68922 3.95373C9.59542 3.99441 9.51055 4.05318 9.43948 4.12667C9.3684 4.20017 9.31251 4.28696 9.275 4.38207H9.276ZM17.573 2.35207L16.83 4.23807L14.946 4.98107C14.8427 5.02295 14.7542 5.09471 14.6919 5.18717C14.6296 5.27963 14.5963 5.38859 14.5963 5.50007C14.5963 5.61156 14.6296 5.72051 14.6919 5.81298C14.7542 5.90544 14.8427 5.9772 14.946 6.01907L16.83 6.76207L17.573 8.64807C17.6141 8.75219 17.6856 8.84154 17.7782 8.9045C17.8707 8.96746 17.9801 9.00113 18.092 9.00113C18.2039 9.00113 18.3133 8.96746 18.4059 8.9045C18.4984 8.84154 18.5699 8.75219 18.611 8.64807L19.356 6.76207L21.239 6.01907C21.3435 5.97835 21.4333 5.90702 21.4966 5.81441C21.5599 5.72181 21.5938 5.61225 21.5938 5.50007C21.5938 5.3879 21.5599 5.27834 21.4966 5.18573C21.4333 5.09313 21.3435 5.0218 21.239 4.98107L19.356 4.23807L18.611 2.35307C18.5833 2.28185 18.541 2.21716 18.487 2.16311C18.4329 2.10906 18.3682 2.06682 18.297 2.03907C18.1593 1.98579 18.0061 1.98886 17.8706 2.04762C17.7351 2.10638 17.6282 2.21611 17.573 2.35307V2.35207ZM16.869 15.3551L16.125 17.2381L14.242 17.9821C14.1704 18.0096 14.1054 18.0518 14.051 18.1058C13.9966 18.1599 13.954 18.2247 13.926 18.2961C13.8723 18.434 13.8754 18.5876 13.9346 18.7233C13.9938 18.859 14.1043 18.9657 14.242 19.0201L16.125 19.7631L16.869 21.6471C16.926 21.7911 17.039 21.9051 17.183 21.9621C17.3208 22.0158 17.4743 22.0129 17.61 21.9539C17.7456 21.8949 17.8524 21.7846 17.907 21.6471L18.651 19.7631L20.534 19.0201C20.6385 18.9794 20.7283 18.908 20.7916 18.8154C20.8549 18.7228 20.8888 18.6132 20.8888 18.5011C20.8888 18.3889 20.8549 18.2793 20.7916 18.1867C20.7283 18.0941 20.6385 18.0228 20.534 17.9821L18.651 17.2381L17.907 15.3551C17.8794 15.2833 17.8372 15.2182 17.7829 15.1638C17.7287 15.1093 17.6636 15.0669 17.592 15.0391C17.4542 14.9857 17.3008 14.9889 17.1654 15.0481C17.03 15.1073 16.9234 15.2176 16.869 15.3551Z" fill="#626F86"/>
</g>
</svg>
