<svg width="18" height="18" viewBox="0 0 18 18" fill="none" xmlns="http://www.w3.org/2000/svg">
<path fill-rule="evenodd" clip-rule="evenodd" d="M13.436 12.0849L17.376 16.0949C17.5525 16.2857 17.6478 16.5377 17.6417 16.7975C17.6356 17.0573 17.5286 17.3046 17.3433 17.4869C17.158 17.6691 16.9091 17.7721 16.6492 17.774C16.3893 17.7759 16.1389 17.6765 15.951 17.4969L12.013 13.4909C10.4935 14.6356 8.59589 15.16 6.70428 14.9581C4.81266 14.7562 3.06845 13.8431 1.82482 12.4035C0.581181 10.9639 -0.0689429 9.10557 0.00608451 7.2047C0.081112 5.30382 0.875683 3.50248 2.22891 2.16542C3.58214 0.828356 5.3929 0.05549 7.29454 0.00331263C9.19618 -0.0488648 11.0466 0.623545 12.4711 1.88439C13.8956 3.14524 14.7878 4.9003 14.9669 6.7942C15.1461 8.6881 14.5988 10.5793 13.436 12.0849ZM7.5 12.9999C8.95869 12.9999 10.3576 12.4204 11.3891 11.389C12.4205 10.3575 13 8.9586 13 7.49991C13 6.04122 12.4205 4.64227 11.3891 3.61082C10.3576 2.57937 8.95869 1.99991 7.5 1.99991C6.04131 1.99991 4.64236 2.57937 3.61091 3.61082C2.57946 4.64227 2 6.04122 2 7.49991C2 8.9586 2.57946 10.3575 3.61091 11.389C4.64236 12.4204 6.04131 12.9999 7.5 12.9999Z" fill="#626F86"/>
</svg>
