<svg width="24" height="24" viewBox="0 0 24 24" fill="none" xmlns="http://www.w3.org/2000/svg">
<g id="&#60;Icon&#62; before">
<path id="Vector" d="M6.48595 13.7283C4.89295 15.3273 6.23795 16.9683 4.12195 19.4023C3.16695 20.5003 8.05395 20.1653 10.4759 17.7343C11.5029 16.7043 11.2129 15.2003 10.1119 14.0943C9.00995 12.9883 7.51195 12.6973 6.48595 13.7283ZM19.9569 4.04333C19.4199 3.49533 13.2239 8.29333 11.4539 10.1013C10.5759 10.9983 10.2829 11.4793 10.0139 11.8393C9.89595 11.9953 10.0509 12.0433 10.1209 12.0803C10.4689 12.2643 10.9629 12.5873 11.2769 12.9083C11.5919 13.2293 11.9419 13.7233 12.1169 14.0693C12.1529 14.1403 12.1999 14.2993 12.3529 14.1793C12.7049 13.9043 13.1759 13.6053 14.0539 12.7073C15.8239 10.9003 20.4939 4.59233 19.9569 4.04333Z" fill="#626F86"/>
</g>
</svg>
