<svg width="24" height="24" viewBox="0 0 24 24" fill="none" xmlns="http://www.w3.org/2000/svg">
<path fill-rule="evenodd" clip-rule="evenodd" d="M14.995 10.9949C15.1825 11.1825 15.2878 11.4368 15.2878 11.7019C15.2878 11.9671 15.1825 12.2214 14.995 12.4089L10.402 17.0019C10.2157 17.1845 9.96488 17.2862 9.70406 17.2849C9.44323 17.2835 9.19346 17.1793 9.00902 16.9949C8.82458 16.8105 8.72039 16.5607 8.71907 16.2999C8.71775 16.039 8.81942 15.7882 9.00198 15.6019L12.902 11.7019L9.00198 7.80195C8.81942 7.61566 8.71775 7.36485 8.71907 7.10402C8.72039 6.84319 8.82458 6.59342 9.00902 6.40898C9.19346 6.22455 9.44323 6.12035 9.70406 6.11903C9.96488 6.11771 10.2157 6.21938 10.402 6.40195L14.995 10.9949Z" fill="#44546F"/>
</svg>
