<svg xmlns="http://www.w3.org/2000/svg" width="17" height="16" viewBox="0 0 17 16" fill="none">
<path fill-rule="evenodd" clip-rule="evenodd" d="M6.028 6.86229C5.90347 6.98821 5.83362 7.15818 5.83362 7.33529C5.83362 7.51239 5.90347 7.68236 6.028 7.80829L7.98734 9.78495C8.13267 9.92829 8.32067 9.99962 8.50667 9.99962C8.69267 9.99962 8.87734 9.92829 9.01934 9.78495L10.9727 7.81495C11.097 7.68894 11.1668 7.51901 11.1668 7.34195C11.1668 7.1649 11.097 6.99497 10.9727 6.86895C10.9115 6.80683 10.8385 6.7575 10.758 6.72383C10.6776 6.69015 10.5912 6.67281 10.504 6.67281C10.4168 6.67281 10.3304 6.69015 10.25 6.72383C10.1695 6.7575 10.0966 6.80683 10.0353 6.86895L8.50334 8.41362L6.96534 6.86229C6.90398 6.80041 6.83098 6.75129 6.75054 6.71777C6.6701 6.68425 6.58382 6.66699 6.49667 6.66699C6.40953 6.66699 6.32325 6.68425 6.24281 6.71777C6.16237 6.75129 6.08936 6.80041 6.028 6.86229V6.86229Z" fill="#172B4D"/>
</svg>