<svg width="17" height="16" viewBox="0 0 17 16" fill="none" xmlns="http://www.w3.org/2000/svg">
<path fill-rule="evenodd" clip-rule="evenodd" d="M15.1666 8.00016C15.1666 11.6821 12.1818 14.6668 8.49992 14.6668C4.81802 14.6668 1.83325 11.6821 1.83325 8.00016C1.83325 4.31826 4.81802 1.3335 8.49992 1.3335C12.1818 1.3335 15.1666 4.31826 15.1666 8.00016ZM7.44259 7.33018H11.1666C11.5346 7.33018 11.8333 7.63018 11.8333 8.00018C11.8333 8.37018 11.5346 8.67018 11.1666 8.67018H7.44259L8.29059 9.52284C8.41537 9.64891 8.48536 9.81913 8.48536 9.99651C8.48536 10.1739 8.41537 10.3441 8.29059 10.4702C8.22872 10.5322 8.1552 10.5815 8.07427 10.6151C7.99333 10.6487 7.90656 10.666 7.81892 10.666C7.73129 10.666 7.64451 10.6487 7.56357 10.6151C7.48264 10.5815 7.40912 10.5322 7.34725 10.4702L5.36192 8.47484C5.23673 8.34872 5.16648 8.17821 5.16648 8.00051C5.16648 7.8228 5.23673 7.6523 5.36192 7.52618L7.34725 5.53018C7.40899 5.46787 7.48246 5.41842 7.56341 5.38467C7.64437 5.35091 7.73121 5.33354 7.81892 5.33354C7.90663 5.33354 7.99347 5.35091 8.07443 5.38467C8.15538 5.41842 8.22885 5.46787 8.29059 5.53018C8.41537 5.65625 8.48536 5.82646 8.48536 6.00384C8.48536 6.18122 8.41537 6.35144 8.29059 6.47751L7.44259 7.33018Z" fill="#091E42" fill-opacity="0.31"/>
</svg>
